<?xml version="1.0" standalone="no"?>
<!DOCTYPE svg PUBLIC "-//W3C//DTD SVG 20010904//EN"
 "http://www.w3.org/TR/2001/REC-SVG-20010904/DTD/svg10.dtd">
<svg version="1.0" xmlns="http://www.w3.org/2000/svg"
 width="1072.000000pt" height="1072.000000pt" viewBox="0 0 1072.000000 1072.000000"
 preserveAspectRatio="xMidYMid meet">
<metadata>
Created by potrace 1.14, written by Peter Selinger 2001-2017
</metadata>
<g transform="translate(0.000000,1072.000000) scale(0.100000,-0.100000)"
fill="#000000" stroke="none">
<path d="M6897 9143 c-3 -5 -250 -8 -550 -8 -300 0 -543 -3 -540 -7 2 -5 1 -8
-4 -8 -10 0 -9 -2862 1 -2878 4 -7 4 -12 -1 -12 -9 0 -9 -737 0 -747 4 -3 3
-11 -2 -17 -5 -6 -5 -20 0 -31 4 -11 8 -14 8 -7 1 7 5 11 10 8 4 -3 16 3 26
14 10 11 22 17 26 14 5 -3 9 0 9 5 0 6 6 11 14 11 8 0 16 3 18 8 2 4 23 18 48
31 25 14 51 31 58 38 8 7 17 11 22 8 4 -3 10 2 14 10 3 8 12 15 21 15 8 0 15
5 15 12 0 6 3 9 6 6 5 -6 60 26 92 52 6 6 12 7 12 3 0 -4 4 -2 9 6 6 9 20 11
50 6 22 -4 41 -10 41 -15 0 -4 18 -17 40 -29 22 -11 40 -18 40 -15 0 3 11 -7
25 -21 14 -14 31 -25 37 -25 6 0 26 -11 43 -25 18 -13 35 -21 39 -18 3 4 6 2
6 -4 0 -6 14 -16 30 -23 17 -7 30 -17 30 -23 0 -6 3 -8 6 -4 4 3 12 1 20 -6
33 -29 44 -37 44 -31 0 3 6 1 13 -5 8 -6 17 -8 20 -4 4 3 7 1 7 -5 0 -6 19
-21 43 -33 23 -12 50 -28 60 -37 9 -8 17 -12 17 -8 0 4 10 -2 22 -14 12 -11
28 -20 35 -20 7 0 13 -5 13 -11 0 -5 5 -7 10 -4 6 3 10 2 10 -3 0 -5 18 -17
40 -27 22 -10 40 -21 40 -24 0 -3 18 -15 40 -25 22 -11 40 -24 40 -29 0 -6 3
-7 6 -4 4 3 18 -2 32 -13 13 -11 28 -17 33 -14 5 3 9 -3 9 -12 0 -10 3 -14 7
-11 3 4 16 1 27 -6 51 -33 51 -33 51 97 l0 121 638 0 c350 1 637 -3 637 -7 0
-5 9 -4 20 2 11 6 20 7 20 2 0 -5 15 -9 33 -9 31 -1 112 -10 112 -13 0 -1 14
-4 30 -6 17 -3 37 -7 45 -11 8 -3 21 -5 28 -4 6 1 12 -4 12 -10 0 -7 3 -10 6
-6 4 3 19 0 35 -9 16 -8 29 -11 29 -8 0 4 9 -1 20 -11 11 -10 20 -15 20 -11 0
7 17 -5 56 -41 14 -13 28 -23 32 -24 15 -4 62 -55 62 -68 0 -8 3 -11 7 -8 3 4
11 -3 18 -16 7 -12 22 -39 33 -60 12 -21 22 -46 22 -55 0 -10 4 -22 9 -27 9
-9 17 -37 26 -95 10 -61 16 -106 16 -115 -6 -133 -20 -237 -38 -285 -4 -8 -5
-18 -5 -22 1 -5 -3 -8 -10 -8 -6 0 -9 -3 -5 -6 7 -7 -27 -77 -54 -112 -38 -49
-89 -102 -101 -104 -7 -2 -23 -13 -36 -26 -13 -12 -28 -20 -33 -17 -5 4 -9 2
-9 -4 0 -5 -9 -13 -20 -16 -11 -3 -20 -13 -20 -21 0 -8 4 -13 8 -10 5 3 15 -4
22 -15 8 -10 20 -19 27 -19 16 0 15 56 18 -660 1 -338 3 -622 4 -632 1 -12 8
-15 29 -13 15 2 52 7 82 10 30 4 71 9 90 12 19 3 45 6 58 7 12 0 22 3 22 6 0
3 17 7 37 8 21 2 40 6 43 10 3 4 14 8 25 9 11 1 31 5 45 8 14 4 32 8 40 9 9 1
20 5 25 8 6 3 26 9 45 13 19 4 40 11 46 16 6 5 20 10 32 12 12 2 25 6 28 10 4
4 16 7 26 7 10 0 18 4 18 10 0 5 7 7 15 4 8 -4 15 -1 15 5 0 6 9 11 19 11 11
0 23 5 26 10 4 6 10 8 15 5 5 -3 11 -1 15 5 4 6 10 8 15 5 4 -3 11 2 14 11 3
8 10 13 15 10 5 -3 14 1 21 9 7 8 21 15 31 15 11 0 19 5 19 10 0 6 4 10 10 10
13 0 114 62 118 72 2 4 8 8 14 8 5 0 15 6 22 13 8 6 24 19 36 27 13 8 32 23
42 33 10 9 23 17 28 17 6 0 10 7 10 15 0 8 4 15 10 15 12 0 97 83 128 123 12
17 22 27 22 21 0 -9 14 10 61 84 12 17 25 32 31 32 5 0 7 4 4 9 -3 5 1 14 9
21 8 7 13 16 10 20 -3 4 2 11 11 14 8 3 12 10 9 16 -3 5 -3 10 2 10 4 0 18 19
30 42 24 47 57 120 59 128 1 5 16 43 31 80 3 8 8 23 9 32 2 10 5 23 6 30 2 7
5 15 9 18 9 8 41 152 35 158 -3 3 -2 10 3 16 10 12 22 73 24 124 1 17 6 32 12
32 5 0 3 5 -5 10 -10 6 -11 10 -3 10 8 0 12 11 9 33 -2 17 0 42 5 55 6 14 5
22 -2 22 -8 0 -7 6 2 16 10 13 10 17 -2 25 -8 5 -9 9 -3 9 7 0 12 19 11 48 0
27 3 54 7 60 3 6 2 13 -3 16 -5 4 -8 14 -6 24 1 9 -2 23 -8 30 -6 8 -6 12 2
12 8 0 10 8 6 20 -3 10 -8 48 -11 82 -8 97 -10 112 -19 131 -4 10 -5 20 -2 23
2 3 -1 25 -8 49 -8 24 -11 46 -8 49 4 3 2 6 -4 6 -5 0 -9 10 -8 23 1 12 -2 28
-7 34 -6 7 -8 19 -5 27 3 8 2 16 -3 18 -5 2 -12 19 -15 38 -3 19 -11 41 -18
49 -7 8 -11 16 -9 18 1 1 2 4 1 6 0 1 -2 9 -4 18 -6 35 -115 262 -127 267 -4
2 -8 10 -8 18 0 8 -8 23 -17 33 -31 34 -43 50 -43 57 0 15 -66 93 -78 94 -7 0
-11 4 -8 8 3 5 -4 15 -15 22 -10 8 -19 18 -19 21 0 9 -59 69 -67 69 -3 0 -17
13 -33 30 -15 16 -30 26 -34 23 -3 -3 -6 1 -6 10 0 10 -6 17 -13 17 -8 0 -22
9 -32 20 -10 11 -20 18 -23 16 -2 -3 -14 5 -26 17 -12 12 -40 31 -61 42 -21
11 -47 28 -57 38 -10 10 -23 15 -28 12 -4 -3 -10 -2 -12 2 -1 5 -24 18 -50 31
-33 16 -45 27 -41 38 3 8 8 13 10 10 3 -2 13 3 23 12 10 9 31 26 45 37 15 11
38 30 52 43 14 12 30 22 35 22 5 0 7 4 4 9 -5 8 22 25 33 21 2 -1 11 11 21 27
10 15 39 51 64 78 60 64 66 72 66 82 0 5 9 15 19 23 11 7 18 17 16 21 -3 4 2
12 10 19 8 7 13 16 10 20 -3 5 4 15 15 23 11 7 17 17 13 20 -3 4 -1 7 6 7 7 0
10 4 6 9 -3 5 0 15 7 23 22 23 73 134 70 151 -1 4 3 7 8 7 6 0 10 9 10 19 0
11 4 22 9 25 7 5 16 35 22 74 0 4 5 13 11 20 6 6 8 12 4 12 -4 0 0 13 9 30 8
16 15 32 14 35 0 3 2 18 5 33 4 15 9 38 12 52 3 14 8 43 11 65 3 22 10 46 16
53 6 8 6 12 -3 12 -8 0 -9 4 -3 13 5 6 9 36 8 64 0 29 3 53 6 53 11 0 -2 378
-14 396 -3 6 -6 23 -6 40 0 16 -3 40 -6 54 -4 14 -7 35 -8 48 -1 12 -5 22 -10
22 -4 0 -5 5 -2 10 4 6 2 17 -4 24 -7 8 -11 18 -9 22 4 16 -14 94 -22 99 -5 3
-7 12 -3 20 3 8 1 15 -4 15 -5 0 -10 6 -11 13 -1 19 -32 100 -44 114 -5 7 -7
17 -3 23 3 5 2 10 -4 10 -5 0 -15 16 -22 35 -7 19 -17 35 -21 35 -4 0 -8 6 -8
14 0 7 -9 25 -21 40 -11 14 -17 26 -14 26 4 0 -4 13 -17 29 -12 15 -30 39 -38
51 -8 13 -23 32 -32 42 -10 10 -18 23 -18 29 0 5 -4 7 -10 4 -5 -3 -10 -1 -10
5 0 7 -16 28 -35 47 -19 19 -35 39 -35 44 0 5 -5 9 -11 9 -6 0 -28 18 -50 40
-21 21 -39 37 -39 35 0 -4 -27 17 -64 50 -6 6 -23 16 -38 24 -16 8 -28 18 -28
23 0 4 -6 8 -14 8 -7 0 -19 7 -26 15 -7 8 -16 12 -21 9 -5 -3 -9 0 -9 5 0 6
-7 11 -15 11 -8 0 -15 4 -15 8 0 5 -16 14 -35 22 -19 8 -35 17 -35 22 0 4 -11
8 -24 8 -13 0 -29 7 -36 15 -7 8 -17 15 -22 15 -6 0 -24 6 -41 14 -31 14 -62
26 -82 32 -5 2 -44 15 -85 30 -76 27 -92 31 -145 41 -16 3 -38 9 -47 14 -9 5
-21 8 -25 7 -4 -1 -30 2 -58 7 -27 5 -53 8 -57 7 -5 -1 -8 1 -8 5 0 7 -23 10
-135 16 -22 1 -43 7 -47 12 -5 6 -8 5 -8 -4 0 -9 -4 -10 -12 -4 -7 6 -51 11
-98 11 -47 1 -98 4 -114 8 -21 5 -27 3 -21 -6 6 -9 4 -11 -6 -4 -21 12 -521
12 -538 -1 -11 -7 -13 -7 -7 3 5 8 0 12 -14 12 -13 0 -19 -4 -14 -12 5 -7 3
-8 -6 -3 -8 5 -183 10 -391 11 -207 2 -380 4 -385 5 -5 1 -13 1 -19 0 -26 -5
-215 -2 -224 3 -5 4 -12 3 -14 -1z m1513 -1325 c8 -2 20 -6 25 -9 6 -3 20 -4
33 -3 12 0 22 -2 22 -7 0 -4 9 -6 20 -4 11 2 20 -1 20 -6 0 -6 5 -7 10 -4 6 3
16 3 23 -2 6 -4 15 -8 20 -9 4 -1 9 -3 12 -4 3 -1 8 -3 13 -4 21 -4 122 -60
122 -67 0 -5 5 -9 11 -9 6 0 31 -20 56 -45 24 -25 41 -45 37 -45 -4 0 2 -8 12
-17 25 -24 55 -79 47 -87 -3 -3 -1 -6 6 -6 7 0 10 -4 6 -9 -3 -5 -1 -12 5 -16
5 -3 10 -17 10 -31 0 -13 3 -24 8 -24 4 0 8 -12 9 -27 7 -118 13 -175 18 -183
4 -6 2 -10 -2 -10 -5 0 -8 -25 -8 -55 1 -30 -2 -55 -5 -55 -3 0 -7 -14 -8 -32
-2 -18 -6 -35 -10 -38 -4 -3 -7 -14 -7 -25 1 -11 -10 -39 -22 -62 -13 -24 -21
-43 -18 -43 3 0 -3 -8 -12 -19 -10 -10 -34 -39 -53 -64 -19 -26 -39 -46 -43
-47 -4 0 -17 -8 -28 -19 -21 -19 -118 -71 -141 -75 -7 -1 -18 -5 -24 -8 -6 -4
-24 -10 -40 -12 -16 -3 -40 -8 -54 -12 -56 -13 -78 -16 -156 -18 -45 -2 -86
-6 -92 -10 -6 -3 -13 -2 -17 3 -4 7 -15 7 -30 1 -18 -7 -25 -6 -25 3 0 7 -3 8
-8 2 -8 -12 -112 -14 -129 -2 -6 4 -14 3 -17 -2 -7 -10 -25 -9 -43 2 -7 5 -13
4 -13 -1 0 -10 -36 -9 -46 1 -4 3 -16 1 -28 -5 -25 -14 -26 -13 -37 4 -5 7 -9
9 -9 3 0 -9 -95 -12 -125 -5 -5 1 -14 1 -20 0 -30 -8 -75 -6 -75 2 0 5 -6 6
-12 2 -19 -12 -48 -12 -48 0 0 7 -3 7 -8 1 -9 -12 -62 -14 -62 -2 0 4 -6 5
-12 0 -19 -11 -37 -12 -44 -2 -3 5 -10 7 -15 4 -19 -12 -49 -13 -49 -2 0 8 -3
8 -8 2 -9 -13 -105 -13 -114 0 -4 5 -8 283 -8 616 l0 606 583 -2 c320 -2 589
-5 597 -7z"/>
<path d="M10 9130 c-13 -8 -11 -3660 2 -3684 7 -13 7 -16 -1 -12 -7 5 -9 -7
-5 -36 4 -24 7 -85 8 -135 0 -51 3 -93 6 -93 3 0 6 -28 7 -62 1 -67 10 -145
19 -159 3 -5 0 -9 -6 -9 -7 0 -8 -6 -1 -19 9 -17 23 -109 22 -153 0 -10 4 -18
8 -18 4 0 6 -15 6 -32 -1 -18 2 -37 6 -43 4 -5 9 -28 12 -50 3 -22 9 -53 13
-70 3 -16 6 -38 6 -47 0 -10 3 -18 6 -18 4 0 9 -14 10 -32 2 -18 6 -35 10 -38
4 -3 8 -16 10 -30 1 -14 5 -32 9 -40 3 -8 7 -19 7 -25 1 -5 9 -35 18 -65 10
-30 16 -58 15 -61 -1 -3 4 -13 11 -22 8 -9 11 -21 7 -27 -3 -5 -1 -10 4 -10 6
0 11 -9 11 -19 0 -11 5 -23 10 -26 6 -4 8 -11 5 -16 -4 -5 -2 -9 4 -9 6 0 8
-7 5 -15 -4 -8 -1 -15 5 -15 6 0 10 -3 9 -7 -1 -5 3 -18 10 -29 6 -12 8 -24 5
-28 -3 -3 -1 -6 6 -6 7 0 10 -4 7 -8 -3 -5 4 -23 15 -40 10 -18 19 -39 19 -46
0 -8 4 -16 9 -18 5 -1 11 -12 13 -23 1 -11 8 -25 13 -32 6 -7 15 -18 21 -25 6
-8 8 -20 6 -27 -3 -8 0 -11 7 -7 6 4 11 1 11 -9 0 -14 14 -44 33 -69 26 -37
57 -88 57 -96 0 -5 8 -14 18 -19 9 -6 13 -11 9 -11 -5 0 -2 -6 5 -14 7 -7 20
-24 28 -37 8 -12 25 -33 37 -46 12 -13 19 -23 15 -23 -4 0 2 -7 12 -15 11 -8
17 -15 13 -15 -4 0 7 -13 23 -29 17 -15 30 -31 30 -34 0 -16 235 -237 252
-237 5 0 6 -4 3 -10 -3 -5 2 -10 12 -10 10 0 24 -9 31 -20 7 -11 17 -20 23
-20 6 0 16 -6 23 -12 8 -7 24 -20 36 -28 12 -8 28 -21 36 -27 7 -7 16 -13 19
-13 4 0 19 -8 33 -19 15 -10 36 -21 47 -25 18 -5 21 -2 20 26 0 18 -4 38 -8
45 -4 6 -3 14 2 17 10 7 9 31 -2 42 -4 4 -2 13 4 21 9 10 8 17 -2 30 -8 9 -9
14 -4 11 7 -4 10 15 11 52 0 39 -3 57 -10 53 -6 -4 -5 1 3 10 11 14 11 20 0
34 -8 9 -9 14 -4 11 7 -4 10 15 11 52 0 39 -3 57 -10 53 -6 -4 -5 1 3 10 11
14 11 20 0 34 -8 9 -9 14 -4 11 7 -4 10 15 11 52 0 39 -3 57 -10 53 -6 -4 -5
1 3 10 11 14 11 20 0 34 -8 9 -9 14 -4 11 7 -4 10 15 11 52 0 39 -3 57 -10 53
-6 -4 -5 1 3 10 11 14 11 20 0 34 -8 9 -9 14 -4 11 7 -4 10 15 11 52 0 39 -3
57 -10 53 -6 -4 -5 1 3 10 11 14 11 20 0 34 -8 9 -9 14 -4 11 6 -4 10 25 11
77 1 76 3 86 25 104 13 11 30 20 37 21 6 0 12 5 12 11 0 5 4 8 9 5 5 -4 11 -3
13 1 3 8 129 86 181 112 15 8 27 18 27 23 0 5 5 6 10 3 6 -3 10 -3 10 2 0 4
18 17 40 27 22 11 40 23 40 28 0 4 6 8 14 8 7 0 19 7 26 15 7 8 16 12 21 9 5
-3 9 0 9 6 0 6 5 8 10 5 6 -3 10 -2 10 3 0 5 11 14 25 20 l26 12 -49 72 c-55
81 -87 139 -84 151 1 4 -3 7 -9 7 -5 0 -7 5 -4 10 3 6 1 10 -5 10 -7 0 -10 6
-7 13 2 6 -4 24 -14 38 -10 14 -16 29 -13 32 3 3 -3 18 -13 33 -13 21 -14 26
-3 19 13 -8 13 -6 2 8 -8 9 -18 33 -23 54 -5 21 -11 45 -14 53 -27 104 -43
184 -49 245 -2 17 -4 32 -6 35 -3 6 -6 40 -15 155 -3 50 -8 100 -10 112 -2 13
1 25 6 29 5 3 6 10 3 16 -4 6 -8 61 -9 122 0 62 -5 118 -10 125 -5 8 -4 12 1
8 11 -6 10 244 0 262 -4 6 -3 11 2 11 10 0 7 144 -4 161 -4 7 -3 10 2 6 11 -6
11 244 0 262 -4 6 -3 11 2 11 10 0 8 92 -2 109 -4 6 -3 11 2 11 10 0 7 104 -4
121 -4 7 -3 10 2 6 11 -6 11 204 0 221 -4 7 -3 12 2 12 10 0 8 92 -2 109 -4 6
-3 11 2 11 10 0 7 104 -4 121 -4 7 -3 9 3 6 12 -7 11 42 -1 61 -4 7 -3 12 2
12 10 0 8 92 -2 109 -4 6 -3 11 2 11 10 0 7 104 -4 121 -4 7 -3 9 3 6 12 -7
11 42 -1 61 -4 7 -3 12 2 12 10 0 8 92 -2 109 -4 6 -3 11 2 11 10 0 7 104 -4
121 -4 7 -3 9 3 6 12 -7 11 42 -1 61 -4 7 -3 12 2 12 10 0 8 92 -2 109 -4 6
-3 11 2 11 10 0 7 104 -4 121 -4 7 -3 9 3 6 11 -7 10 84 -1 102 -4 6 -3 11 2
11 10 0 7 144 -4 161 -4 7 -3 10 2 6 11 -6 11 244 0 262 -4 6 -3 11 2 11 10 0
8 92 -2 109 -4 6 -3 11 2 11 10 0 7 104 -4 121 -4 7 -3 10 2 6 5 -3 8 34 7 86
-2 130 -1 121 -17 108 -8 -7 -16 -8 -19 -4 -7 11 -468 10 -486 -1 -10 -6 -12
-5 -7 2 5 8 -1 12 -14 12 -13 0 -19 -4 -14 -12 5 -7 3 -8 -7 -2 -21 12 -581
12 -598 -1 -11 -7 -13 -7 -7 3 5 8 0 12 -14 12 -13 0 -19 -4 -14 -12 5 -7 3
-8 -7 -2 -15 9 -225 12 -239 4z"/>
<path d="M3389 9130 c-5 -32 -2 -3745 3 -3753 6 -9 8 -8 8 1 0 7 4 11 9 7 5
-3 16 1 24 9 8 8 17 12 21 9 3 -4 6 -1 6 5 0 7 5 12 11 12 6 0 30 13 53 30 24
16 46 26 50 23 3 -4 6 -1 6 5 0 7 7 12 15 12 8 0 15 4 15 10 0 5 11 12 25 16
14 3 22 11 18 17 -4 6 0 8 10 4 11 -4 17 -1 17 9 0 9 5 12 12 8 6 -4 17 1 25
11 7 11 13 16 13 12 0 -6 104 56 135 80 25 20 65 32 65 21 0 -6 3 -8 6 -5 7 6
63 -21 74 -35 3 -3 12 -8 19 -10 8 -2 23 -11 33 -20 10 -10 25 -18 33 -18 8 0
15 -5 15 -11 0 -5 4 -8 9 -5 5 3 11 -1 15 -9 3 -8 12 -15 21 -15 8 0 15 -5 15
-11 0 -5 4 -8 9 -4 5 3 12 1 16 -5 3 -5 21 -17 40 -26 19 -9 35 -21 35 -26 0
-5 4 -7 9 -4 5 3 14 -1 21 -9 7 -8 18 -15 25 -15 8 0 15 -4 17 -9 2 -5 10 -11
18 -13 8 -2 17 -5 20 -9 10 -11 111 -69 120 -69 6 0 10 -5 10 -11 0 -5 4 -8 8
-5 5 3 14 -3 22 -14 7 -10 20 -16 28 -12 10 3 13 1 8 -6 -4 -7 -1 -12 8 -12 9
0 16 -5 16 -12 0 -6 3 -9 6 -5 6 6 85 -39 95 -55 3 -5 9 -9 13 -9 20 3 26 0
20 -11 -5 -8 -2 -9 9 -5 10 3 17 3 17 -2 0 -5 8 -11 19 -14 16 -4 18 1 16 44
-1 26 2 54 6 61 4 7 3 18 -3 25 -6 7 -6 13 -1 13 5 0 9 16 9 35 0 19 -4 35 -9
35 -4 0 -5 6 0 13 11 17 10 31 -2 39 -7 5 -7 8 0 8 7 0 12 129 13 396 1 218 4
400 8 405 3 5 2 9 -3 9 -4 0 -8 23 -8 50 0 28 4 50 8 50 5 0 5 5 1 11 -7 13
-9 107 -2 114 2 3 3 32 2 65 -2 44 0 58 9 53 9 -5 9 -3 1 8 -8 10 -10 123 -8
379 1 201 4 367 5 370 1 3 0 10 -1 15 -2 12 -2 206 0 220 1 6 2 14 0 20 -2 11
-1 686 1 700 1 6 0 15 -1 20 -2 12 -2 206 0 220 1 6 2 14 1 19 -1 5 -3 128 -4
275 -2 146 -5 271 -9 276 -8 13 -657 13 -677 1 -10 -6 -12 -5 -7 2 5 8 -1 12
-14 12 -13 0 -19 -4 -14 -12 5 -7 3 -8 -7 -2 -14 9 -698 13 -700 4z"/>
<path d="M2553 5699 c-18 -6 -26 -36 -12 -44 4 -3 4 -16 0 -28 -5 -14 -5 -30
0 -40 6 -9 6 -17 2 -17 -5 0 -9 -22 -8 -50 0 -27 3 -50 7 -50 4 0 3 -11 -2
-25 -6 -15 -6 -27 0 -30 5 -3 6 -15 1 -28 -5 -14 -5 -30 0 -40 6 -9 6 -17 2
-17 -5 0 -9 -22 -8 -50 0 -27 3 -50 7 -50 4 0 3 -11 -2 -25 -6 -15 -6 -27 0
-30 6 -3 5 -16 -1 -33 -7 -17 -7 -28 0 -30 6 -2 6 -14 1 -33 -5 -17 -5 -29 0
-29 6 0 6 -10 0 -25 -6 -17 -6 -25 1 -25 6 0 7 -6 3 -12 -10 -16 -13 -48 -4
-48 3 0 6 -44 5 -97 -1 -95 -2 -97 -34 -130 -18 -18 -37 -31 -42 -27 -5 3 -9
0 -9 -6 0 -6 -4 -8 -10 -5 -5 3 -10 2 -10 -4 0 -5 -12 -16 -27 -24 -64 -32
-109 -59 -118 -71 -5 -7 -12 -13 -15 -13 -17 0 -50 -16 -50 -24 0 -6 -4 -7
-10 -4 -5 3 -10 2 -10 -2 0 -5 -17 -17 -37 -28 -21 -11 -44 -26 -51 -32 -7 -7
-20 -13 -28 -13 -8 0 -17 -7 -20 -15 -4 -8 -10 -13 -14 -10 -4 3 -13 -2 -20
-10 -7 -8 -16 -15 -21 -15 -11 0 -112 -63 -121 -75 -5 -7 -8 -7 -8 0 0 7 -3 7
-8 0 -9 -12 -61 -44 -84 -52 -10 -3 -18 -9 -18 -14 0 -5 -4 -9 -10 -9 -5 0
-36 -17 -67 -37 -83 -54 -114 -72 -145 -86 -16 -6 -28 -15 -28 -19 0 -4 -7 -8
-15 -8 -8 0 -15 -4 -15 -10 0 -5 -6 -10 -13 -10 -8 0 -24 -9 -37 -20 -12 -11
-27 -17 -31 -14 -5 3 -9 1 -9 -5 0 -5 -9 -12 -20 -16 -10 -3 -28 -20 -38 -38
-18 -31 -19 -59 -17 -742 1 -390 3 -712 5 -715 1 -3 1 -9 0 -15 -6 -29 -4 -75
4 -75 4 0 3 -7 -5 -16 -10 -13 -10 -17 0 -24 8 -5 10 -13 5 -21 -10 -18 -12
-79 -2 -85 5 -3 6 -10 2 -15 -10 -16 -10 -79 0 -79 4 0 3 -7 -5 -16 -10 -13
-10 -17 0 -24 8 -4 10 -13 6 -21 -5 -7 -10 -27 -11 -45 -2 -39 -10 -54 -30
-54 -8 0 -14 -5 -14 -11 0 -5 -4 -7 -10 -4 -5 3 -10 1 -10 -4 0 -6 -3 -10 -7
-9 -5 1 -28 -7 -53 -18 -25 -10 -48 -18 -52 -16 -5 1 -8 -2 -8 -7 0 -9 -48
-26 -62 -23 -5 1 -8 -3 -8 -8 0 -5 -3 -9 -7 -9 -14 3 -73 -25 -73 -34 0 -4 -4
-6 -9 -3 -5 4 -39 -9 -75 -28 -35 -19 -67 -31 -70 -28 -3 3 -6 -1 -6 -8 0 -7
-3 -10 -6 -7 -4 4 -20 -3 -35 -14 -16 -11 -29 -18 -29 -15 0 3 -22 -7 -48 -23
-27 -16 -59 -32 -71 -36 -12 -3 -18 -11 -15 -17 5 -7 2 -8 -5 -3 -8 4 -25 -1
-42 -14 -15 -11 -33 -21 -39 -21 -5 0 -10 -5 -10 -11 0 -5 -4 -7 -10 -4 -5 3
-10 1 -10 -5 0 -6 -4 -8 -10 -5 -6 3 -10 1 -10 -5 0 -6 -4 -8 -10 -5 -5 3 -10
1 -10 -4 0 -6 -3 -10 -7 -9 -11 2 -63 -24 -63 -32 0 -4 7 -7 15 -7 8 0 12 4 9
9 -3 4 -2 8 3 9 33 3 58 11 133 39 47 18 93 32 103 32 9 0 17 3 17 8 0 5 16
12 35 16 19 3 33 9 30 13 -2 4 10 8 27 8 18 0 34 5 36 11 2 7 8 9 13 6 6 -3
15 -2 22 4 14 10 108 38 120 34 4 -1 7 2 7 7 0 7 34 18 78 23 6 1 12 4 12 8 0
4 6 7 13 8 50 4 107 22 107 34 0 5 4 7 9 4 5 -3 28 1 51 9 23 8 46 12 51 9 5
-3 9 -1 9 4 0 5 15 12 33 16 40 7 49 10 62 17 6 4 18 5 28 4 9 -2 17 1 17 7 0
6 9 8 20 5 11 -3 20 -1 20 3 0 5 20 12 45 16 25 3 45 9 45 13 0 4 10 7 23 8
12 1 32 4 45 7 12 3 30 8 40 10 9 3 31 9 49 15 17 5 34 7 37 3 3 -3 6 -1 6 5
0 5 12 10 28 11 15 0 57 9 94 20 37 11 69 17 72 15 3 -3 11 -1 18 3 14 9 24
11 77 19 18 3 37 8 43 11 5 3 19 7 31 9 12 1 38 6 57 10 19 4 44 9 55 10 11 2
21 4 23 5 1 2 7 4 12 5 6 1 11 3 13 5 1 1 16 3 32 5 17 2 41 6 55 9 25 7 50
11 105 20 17 2 42 9 57 15 17 6 30 7 33 1 3 -6 13 -6 23 -1 39 19 82 29 82 19
0 -7 4 -7 13 0 6 6 35 13 62 15 28 3 50 6 50 7 0 2 23 6 80 15 94 13 120 16
153 18 17 1 32 5 32 8 0 3 6 6 13 6 19 0 128 13 167 19 19 3 58 7 86 8 29 2
56 5 60 8 5 3 29 6 54 7 25 1 46 5 48 9 1 4 29 6 62 5 33 -1 60 1 60 5 0 4 24
8 53 9 99 3 185 10 196 17 6 4 11 1 11 -6 0 -9 2 -10 8 -2 4 7 28 12 54 11 27
0 51 2 54 6 3 3 17 2 31 -4 17 -6 22 -6 17 2 -4 7 4 10 22 9 16 -1 34 -1 39 0
6 1 33 2 60 2 28 0 55 4 62 9 7 7 14 6 18 -1 4 -6 12 -7 23 -1 11 6 24 6 34 0
9 -5 19 -6 22 -1 2 4 39 7 80 7 42 -1 76 3 76 7 0 5 9 4 20 -2 11 -6 20 -7 20
-3 0 4 75 8 168 8 100 0 170 4 175 10 4 7 10 7 15 0 9 -14 95 -13 105 0 4 7
10 7 15 0 9 -14 95 -13 105 0 4 7 10 7 15 0 9 -14 95 -13 105 0 5 7 9 7 15 0
9 -12 102 -14 102 -2 0 4 5 5 12 1 6 -4 72 -8 147 -9 75 0 142 -4 149 -9 7 -4
12 -2 12 6 0 9 3 9 10 -2 7 -11 10 -11 10 -2 0 7 5 10 11 6 6 -3 54 -8 105 -9
52 -1 97 -5 101 -8 3 -4 12 -2 20 4 7 6 13 7 13 2 0 -5 42 -10 93 -11 50 -1
108 -3 127 -6 46 -7 204 -19 258 -20 23 0 42 -3 42 -7 0 -3 23 -5 51 -5 28 1
53 -2 56 -7 3 -5 9 -3 14 4 5 8 9 10 9 4 0 -5 20 -11 44 -13 24 -1 59 -5 77
-8 19 -3 53 -6 77 -6 23 0 42 -3 42 -7 0 -4 17 -7 38 -7 20 -1 57 -4 82 -8 25
-4 69 -9 98 -12 53 -6 87 -11 87 -14 0 -1 18 -3 40 -6 22 -2 49 -6 60 -8 35
-7 140 -20 148 -18 4 1 7 -1 7 -6 0 -6 37 -12 113 -16 15 0 27 -4 27 -9 0 -4
15 -7 33 -5 18 1 39 -2 47 -7 7 -4 36 -10 64 -12 28 -3 53 -8 56 -12 3 -3 16
-6 30 -6 14 1 30 -1 35 -4 6 -3 15 -6 20 -7 39 -8 92 -17 103 -17 6 0 12 -3
12 -6 0 -3 10 -6 23 -7 12 0 33 -3 47 -7 53 -12 163 -36 195 -41 6 -1 16 -5
23 -10 7 -4 16 -5 19 -2 3 3 18 -1 34 -10 22 -11 29 -11 29 -2 0 9 3 9 12 0 7
-7 22 -12 33 -12 12 0 25 -3 29 -7 6 -7 15 -9 61 -17 29 -5 78 -17 95 -23 8
-3 24 -8 35 -10 38 -8 50 -11 50 -13 0 -1 11 -4 60 -14 6 -1 15 -5 21 -8 6 -4
21 -9 35 -12 13 -3 35 -8 49 -11 14 -3 30 -7 37 -9 7 -1 16 -5 19 -9 4 -4 18
-7 30 -7 13 0 25 -4 29 -10 3 -5 12 -7 20 -3 8 3 15 1 15 -4 0 -5 8 -9 18 -10
9 -1 31 -7 47 -14 17 -6 46 -14 65 -16 19 -2 37 -7 40 -11 4 -7 59 -25 135
-45 19 -5 90 -29 105 -34 8 -4 18 -5 23 -5 4 1 7 -3 7 -9 0 -5 5 -7 10 -4 6 4
16 2 23 -3 10 -8 30 -14 82 -28 6 -1 26 -9 46 -18 20 -8 39 -12 43 -9 3 4 6 1
6 -5 0 -7 11 -12 25 -12 14 0 25 -4 25 -8 0 -5 6 -9 13 -9 6 -1 37 -11 67 -23
30 -12 60 -22 65 -23 6 -2 16 -6 23 -10 6 -5 12 -4 12 1 0 5 -13 15 -30 22
-16 7 -30 17 -30 22 0 5 -4 6 -10 3 -5 -3 -10 -1 -10 5 0 6 -4 8 -10 5 -5 -3
-10 -3 -10 2 0 4 -26 21 -58 38 -31 16 -60 33 -63 38 -3 5 -9 8 -13 8 -13 -2
-86 34 -86 42 0 4 -5 5 -10 2 -6 -3 -10 -1 -10 4 0 6 -3 10 -7 10 -14 -3 -73
25 -73 34 0 4 -4 5 -10 2 -5 -3 -10 -2 -10 4 0 5 -13 12 -30 16 -16 4 -30 11
-30 15 0 5 -7 7 -15 4 -8 -4 -15 -1 -15 6 0 6 -5 8 -10 5 -6 -3 -10 -1 -10 6
0 7 -3 10 -6 6 -3 -3 -21 3 -40 14 -19 10 -41 19 -49 19 -8 0 -15 5 -15 11 0
5 -4 7 -10 4 -5 -3 -10 -1 -10 4 0 6 -3 10 -7 9 -8 -1 -31 8 -106 40 -65 29
-81 35 -89 34 -5 -1 -8 2 -8 6 0 5 -6 9 -12 9 -27 1 -43 9 -60 30 -17 20 -18
63 -16 762 2 408 -1 741 -5 741 -5 0 -5 5 -2 11 12 18 7 399 -5 414 -12 14
-131 86 -142 85 -5 0 -17 9 -28 20 -11 11 -27 20 -35 20 -8 0 -15 5 -15 10 0
6 -5 10 -11 10 -6 0 -17 7 -26 15 -8 8 -19 13 -24 10 -5 -4 -9 -2 -9 3 0 5
-20 19 -45 32 -24 12 -53 31 -64 41 -11 11 -25 19 -30 19 -6 0 -30 14 -54 30
-25 17 -49 30 -55 30 -6 0 -12 4 -14 8 -1 4 -25 20 -52 36 -39 23 -50 26 -57
15 -5 -8 -4 -15 1 -17 6 -2 7 -9 3 -15 -4 -6 -7 -108 -8 -227 -1 -180 2 -218
15 -234 8 -10 14 -20 13 -22 -8 -11 -1 -24 11 -24 8 0 16 -4 18 -9 2 -5 10
-11 18 -13 8 -2 26 -14 40 -28 l26 -26 -1 -749 c0 -802 3 -761 -45 -743 -14 5
-104 30 -122 34 -5 1 -9 2 -10 3 -2 2 -14 5 -28 7 -13 3 -29 9 -35 15 -7 7
-10 443 -10 1322 l-1 1312 -72 2 c-40 1 -80 4 -88 7 -8 3 -14 2 -14 -3 0 -9
-96 -5 -111 5 -5 3 -9 1 -9 -3 0 -5 -26 -9 -57 -9 l-58 1 0 -63 c0 -34 -3 -62
-7 -62 -4 0 -5 -6 -2 -14 8 -22 10 -226 2 -226 -4 0 -5 -6 -2 -14 8 -22 10
-226 2 -226 -4 0 -5 -6 -2 -14 8 -22 10 -226 2 -226 -4 0 -5 -6 -2 -14 8 -22
10 -226 2 -226 -4 0 -5 -6 -2 -14 8 -22 10 -226 2 -226 -4 0 -5 -6 -2 -14 8
-22 10 -226 2 -226 -4 0 -5 -6 -2 -14 8 -22 10 -226 2 -226 -4 0 -5 -6 -2 -14
8 -22 10 -226 2 -226 -4 0 -5 -6 -2 -14 8 -22 10 -226 2 -226 -4 0 -5 -7 -2
-15 10 -26 9 -135 -1 -139 -6 -3 -5 -5 1 -5 13 -1 6 -53 -8 -62 -5 -3 -35 0
-66 7 -31 8 -72 15 -89 16 -18 1 -33 5 -33 9 0 4 -16 6 -35 5 -19 -1 -35 3
-35 8 0 5 -3 7 -6 3 -3 -3 -16 -2 -29 3 -15 6 -27 4 -35 -3 -10 -9 -11 -9 -6
1 5 8 -2 12 -23 12 -17 0 -31 3 -31 8 0 4 -15 8 -33 9 -34 1 -102 10 -102 13
0 1 -9 3 -20 5 -11 2 -36 7 -55 10 -19 4 -46 9 -60 11 -14 2 -36 6 -50 9 -14
3 -36 7 -50 10 -78 12 -106 18 -126 25 -12 5 -24 6 -28 3 -3 -3 -13 -2 -23 2
-10 5 -27 9 -38 10 -21 3 -59 10 -107 21 -20 4 -28 12 -28 27 -1 12 -1 311 -1
664 l0 641 -32 24 c-18 14 -52 35 -77 49 -25 13 -47 26 -50 29 -3 3 -17 11
-32 19 -16 8 -28 18 -28 23 0 5 -4 7 -9 3 -5 -3 -15 1 -23 8 -17 17 -108 69
-108 62 0 -3 -9 3 -19 13 -38 34 -50 41 -75 48 -14 3 -26 10 -26 14 0 4 -13
13 -30 20 -16 7 -30 16 -30 21 0 5 -9 9 -20 9 -11 0 -20 5 -20 10 0 6 -18 18
-40 27 -22 10 -40 21 -40 25 0 5 -7 8 -15 8 -8 0 -15 4 -15 9 0 5 -8 11 -17
14 -18 6 -73 37 -83 47 -3 3 -18 12 -35 20 -16 8 -39 23 -49 33 -11 9 -26 17
-33 17 -7 0 -13 5 -13 11 0 5 -4 7 -10 4 -5 -3 -10 -1 -10 4 0 6 -9 11 -20 11
-29 0 -15 22 30 48 22 12 41 21 42 20 2 -1 16 9 31 22 16 14 29 23 30 20 1 -2
23 10 49 28 26 18 51 32 57 32 6 0 11 5 11 11 0 5 5 7 10 4 6 -3 10 -2 10 3 0
5 18 17 40 28 22 10 40 22 40 27 0 4 4 7 10 7 5 0 34 16 64 35 30 19 60 35 66
35 5 0 10 5 10 10 0 6 7 10 15 10 9 0 18 7 22 16 3 8 11 13 18 10 8 -3 16 2
19 10 3 9 10 12 16 9 5 -3 10 -1 10 4 0 6 5 11 11 11 6 0 17 7 26 15 8 8 19
13 24 10 5 -4 9 -1 9 4 0 6 11 11 25 11 14 0 25 -5 25 -11 0 -5 5 -7 10 -4 6
3 10 1 10 -4 0 -6 4 -11 9 -11 12 0 115 -63 119 -72 2 -5 8 -8 14 -8 5 0 23
-9 39 -21 16 -11 29 -17 29 -14 0 4 8 -1 17 -10 9 -10 29 -22 45 -27 15 -6 26
-13 23 -17 -2 -5 14 -14 35 -21 22 -7 38 -15 35 -18 -2 -3 17 -16 43 -30 26
-14 49 -28 52 -31 3 -3 19 -13 35 -21 17 -8 32 -17 35 -20 9 -9 43 -29 88 -52
23 -12 42 -26 42 -31 0 -4 5 -5 10 -2 6 3 10 1 10 -4 0 -6 7 -11 15 -11 8 0
15 -5 15 -11 0 -5 5 -7 10 -4 6 3 10 1 10 -4 0 -6 7 -11 15 -11 8 0 15 -4 15
-10 0 -5 5 -10 10 -10 6 0 47 -22 91 -50 44 -27 82 -50 84 -50 2 0 21 -12 42
-26 21 -14 48 -30 61 -35 12 -5 22 -13 22 -19 0 -6 4 -8 10 -5 5 3 20 -3 32
-14 12 -12 28 -21 35 -21 7 0 13 -4 13 -10 0 -5 9 -10 20 -10 11 0 20 -5 20
-11 0 -6 8 -9 17 -7 13 2 17 15 17 56 1 28 -3 52 -7 52 -5 0 -5 6 -1 12 12 19
12 48 1 48 -6 0 -6 5 -1 13 11 15 11 38 1 55 -5 6 -4 12 0 12 10 0 10 61 -1
78 -4 7 -4 12 1 12 4 0 8 11 8 25 0 14 -4 25 -9 25 -5 0 -5 6 0 13 11 14 11
37 2 52 -4 6 -3 17 2 25 10 16 -26 74 -41 65 -5 -4 -9 -1 -9 4 0 6 -7 11 -16
11 -8 0 -12 5 -9 10 3 6 -3 10 -14 10 -12 0 -21 5 -21 12 0 6 -3 9 -6 6 -5 -5
-56 23 -89 50 -5 4 -26 16 -45 26 -77 39 -90 47 -90 57 0 6 -4 8 -9 5 -5 -3
-14 1 -21 9 -7 8 -19 15 -26 15 -8 0 -14 3 -14 8 0 4 -23 18 -50 31 -28 14
-50 29 -50 33 0 4 -5 8 -11 8 -6 0 -31 14 -56 32 -25 17 -43 25 -39 17 6 -10
4 -10 -6 1 -17 18 -47 39 -70 46 -10 4 -18 10 -18 14 0 4 -8 10 -17 13 -21 7
-76 39 -83 49 -3 3 -12 8 -20 10 -8 2 -23 11 -34 21 -11 9 -26 17 -33 17 -7 0
-13 5 -13 10 0 6 -5 10 -10 10 -6 0 -29 12 -53 27 -57 37 -96 60 -134 80 -18
9 -33 20 -33 25 0 4 -6 8 -13 8 -7 0 -23 9 -35 20 -12 11 -25 21 -29 22 -5 0
-18 5 -30 11 -26 11 -65 3 -87 -19 -9 -8 -16 -12 -16 -9 0 4 -16 -5 -35 -19
-19 -15 -39 -25 -44 -21 -5 3 -16 -3 -23 -13 -7 -10 -28 -25 -45 -33 -18 -7
-33 -17 -33 -21 0 -5 -7 -8 -15 -8 -7 0 -19 -8 -24 -17 -6 -10 -11 -14 -11
-10 0 5 -13 -1 -29 -12 -16 -12 -34 -21 -39 -21 -6 0 -12 -4 -14 -8 -1 -4 -30
-23 -62 -41 -33 -18 -66 -40 -74 -47 -7 -8 -18 -12 -23 -9 -5 4 -9 2 -9 -3 0
-9 -50 -37 -62 -34 -5 1 -8 -2 -8 -8 0 -5 -16 -17 -35 -26 -19 -9 -35 -20 -35
-25 0 -5 -3 -8 -7 -7 -9 3 -128 -67 -155 -90 -10 -8 -18 -12 -18 -8 0 4 -14
-4 -31 -18 -17 -14 -35 -24 -40 -20 -5 3 -9 2 -9 -3 0 -4 -27 -24 -60 -42 -33
-19 -60 -39 -60 -45 0 -5 -3 -7 -6 -3 -3 3 -22 -3 -41 -14 -30 -17 -39 -18
-69 -7 -19 6 -34 16 -34 20 0 4 -6 8 -13 8 -7 0 -23 9 -34 19 -12 11 -24 17
-27 14 -3 -4 -14 4 -25 15 -10 12 -23 22 -29 22 -10 0 -65 33 -97 57 -5 5 -27
17 -47 28 -21 11 -38 23 -38 28 0 4 -4 5 -10 2 -6 -3 -10 -2 -10 3 0 4 -16 14
-35 22 -19 8 -35 17 -35 22 0 4 -7 8 -15 8 -8 0 -15 4 -15 9 0 5 -15 15 -32
22 -18 7 -42 21 -52 31 -18 16 -25 19 -42 17 -3 0 -14 10 -25 22 -10 12 -19
18 -19 13 0 -5 -7 0 -15 10 -8 11 -15 16 -15 12 0 -4 -13 2 -30 14 -16 12 -30
18 -30 13 0 -4 -4 -2 -9 6 -5 8 -17 16 -27 17 -10 2 -21 9 -26 17 -4 8 -19 18
-33 21 -14 4 -25 11 -25 17 0 6 -4 7 -10 4 -5 -3 -10 -2 -10 3 0 5 -13 15 -30
22 -16 7 -30 16 -30 20 0 4 -11 11 -25 14 -14 4 -25 11 -25 17 0 6 -4 7 -10 4
-5 -3 -10 -2 -10 3 0 5 -8 12 -17 15 -20 6 -75 38 -83 48 -12 14 -59 16 -64 2
-3 -8 -10 -11 -16 -8 -5 3 -10 1 -10 -4 0 -6 -6 -11 -14 -11 -7 0 -19 -7 -26
-15 -7 -8 -16 -13 -20 -10 -4 3 -11 -2 -14 -11 -3 -8 -10 -12 -16 -9 -5 3 -10
1 -10 -4 0 -6 -7 -11 -15 -11 -8 0 -15 -4 -15 -9 0 -5 -16 -15 -35 -22 -19 -7
-35 -17 -35 -21 0 -4 -7 -8 -15 -8 -9 0 -18 -7 -21 -15 -4 -8 -9 -13 -14 -10
-4 2 -17 -5 -28 -16 -12 -11 -22 -17 -22 -14 0 4 -13 -3 -29 -14 -15 -11 -31
-18 -35 -14 -3 3 -6 1 -6 -6 0 -7 -16 -19 -35 -27 -19 -8 -35 -18 -35 -23 0
-5 -13 -12 -30 -16 -16 -4 -30 -10 -30 -14 0 -7 -46 -32 -60 -33 -3 0 -11 -9
-18 -20 -7 -10 -17 -16 -22 -13 -5 3 -14 -1 -22 -8 -7 -7 -29 -22 -48 -33 -19
-10 -37 -21 -40 -24 -7 -7 -67 -40 -73 -40 -3 0 -4 11 -2 25 1 14 -1 28 -5 30
-4 3 -5 20 -1 38 5 18 6 41 4 52 -4 19 -4 50 1 108 1 15 -2 27 -7 27 -4 0 -6
4 -2 9 10 17 12 71 2 71 -5 0 -5 5 2 13 6 8 8 17 5 20 -8 7 -11 87 -3 87 7 0
2 97 -6 110 -3 5 -2 10 3 10 12 0 11 24 -2 35 -12 11 -495 14 -523 4z m1397
-693 c0 -5 3 -6 6 -3 4 3 18 -3 32 -13 13 -11 31 -20 38 -20 8 0 14 -4 14 -10
0 -5 7 -10 15 -10 8 0 15 -4 15 -10 0 -5 4 -10 9 -10 13 0 145 -81 153 -94 5
-6 8 -7 8 -1 0 6 7 1 15 -9 8 -11 15 -16 15 -12 0 4 14 -1 30 -11 17 -9 30
-21 30 -26 0 -4 4 -6 9 -2 5 3 15 -1 23 -8 7 -7 41 -29 76 -48 34 -20 60 -38
57 -40 -2 -3 5 -5 15 -6 11 -1 29 -11 42 -22 12 -12 30 -21 40 -21 11 0 16 -4
13 -10 -3 -5 1 -10 9 -10 9 0 16 -4 16 -9 0 -8 19 -16 43 -19 5 0 17 -10 26
-21 10 -11 21 -18 25 -14 3 3 6 1 6 -6 0 -7 4 -10 9 -7 4 3 19 -3 31 -14 12
-11 31 -22 41 -25 11 -4 19 -10 19 -14 0 -4 16 -13 35 -21 19 -8 35 -17 35
-22 0 -4 4 -8 9 -8 10 0 112 -60 121 -71 3 -4 15 -9 26 -13 12 -4 34 -18 50
-31 15 -13 30 -23 32 -20 3 3 57 -30 87 -52 6 -5 22 -14 38 -20 15 -7 27 -16
27 -21 0 -5 6 -9 13 -9 15 0 67 -33 67 -42 0 -4 6 -8 13 -8 7 0 39 -16 70 -36
32 -20 62 -37 67 -37 6 0 10 -5 10 -11 0 -5 5 -7 10 -4 6 3 10 2 10 -2 0 -5
17 -17 38 -28 20 -11 39 -23 42 -27 3 -3 12 -8 20 -10 14 -3 29 -13 55 -35 7
-7 20 -13 28 -13 8 0 17 -7 21 -15 3 -8 11 -15 19 -15 7 0 28 -11 47 -25 18
-13 37 -22 41 -19 5 3 9 1 9 -3 0 -5 14 -17 30 -26 17 -10 30 -15 30 -11 0 5
10 -6 23 -23 l22 -30 -1 -524 c-1 -288 -2 -527 -3 -530 -2 -9 -31 -7 -31 3 0
5 -8 4 -19 -1 -10 -6 -21 -8 -25 -4 -6 7 -132 14 -273 16 -51 1 -93 4 -93 8 0
9 -21 6 -39 -5 -7 -5 -16 -4 -20 1 -7 11 -720 11 -738 0 -8 -5 -13 -4 -13 3 0
6 -5 8 -12 4 -7 -4 -69 -9 -138 -11 -161 -5 -153 -4 -167 -16 -8 -5 -13 -6
-13 0 0 10 -64 8 -82 -3 -7 -4 -8 -3 -4 4 5 9 0 9 -18 2 -19 -7 -26 -6 -26 3
0 7 -3 8 -8 2 -11 -15 -56 -20 -229 -27 -35 -2 -63 -6 -63 -9 0 -3 -27 -5 -59
-5 -33 1 -57 -2 -54 -6 3 -7 -40 -11 -109 -11 -10 0 -18 -3 -18 -6 0 -4 -20
-6 -45 -6 -25 1 -45 -2 -45 -6 0 -4 -16 -6 -35 -4 -20 1 -38 -2 -41 -6 -2 -4
-20 -7 -39 -5 -19 1 -35 -1 -35 -5 0 -4 -6 -6 -12 -6 -31 3 -144 -16 -157 -27
-12 -9 -13 -8 -6 4 7 13 6 13 -7 2 -9 -7 -28 -11 -42 -8 -14 3 -28 1 -31 -4
-3 -4 -18 -7 -35 -6 -16 1 -30 -1 -30 -6 0 -4 -17 -8 -38 -8 -37 0 -39 1 -40
35 -1 20 -4 40 -7 45 -4 6 -2 10 2 10 9 0 10 46 1 55 -3 3 -2 20 2 38 4 18 5
41 3 52 -4 19 -4 50 1 108 1 15 -2 27 -7 27 -4 0 -6 4 -2 9 10 17 12 71 2 71
-5 0 -5 5 2 13 6 8 8 17 5 20 -8 7 -11 87 -4 87 7 0 5 48 -2 55 -3 3 -2 20 2
38 4 18 5 41 3 52 -4 19 -4 50 1 108 1 15 -2 27 -7 27 -4 0 -6 4 -2 9 10 17
12 71 2 71 -5 0 -5 5 2 13 6 8 8 17 5 20 -8 7 -11 87 -4 87 7 0 5 48 -2 55 -3
3 -2 20 2 38 4 18 5 41 3 52 -4 19 -4 50 1 108 1 15 -2 27 -7 27 -4 0 -6 4 -2
9 10 17 12 71 2 71 -5 0 -5 5 2 13 6 8 8 17 5 20 -8 7 -11 87 -4 87 7 0 5 48
-2 55 -3 3 -2 20 2 38 4 18 5 41 3 52 -7 36 -8 95 -2 95 7 0 2 97 -6 110 -3 5
-2 10 3 10 5 0 8 11 6 25 -1 14 4 31 12 38 8 7 21 18 29 25 7 6 18 12 24 12 6
0 11 5 11 12 0 6 3 9 6 5 4 -3 26 7 50 24 24 16 44 26 44 22 0 -4 5 0 11 10 6
9 14 15 20 12 5 -4 9 -1 9 4 0 6 7 11 15 11 8 0 15 5 15 11 0 5 5 7 10 4 6 -3
10 -2 10 4 0 6 11 13 25 17 13 3 29 12 36 20 6 8 15 11 20 8 5 -3 9 2 9 10 0
9 3 15 8 14 11 -4 92 44 92 54 0 5 4 6 10 3 5 -3 19 3 31 14 12 11 26 18 31
15 4 -3 8 -1 8 4 0 5 20 20 45 33 25 13 45 28 45 32 0 5 4 6 9 3 5 -3 14 1 21
9 7 8 17 15 22 15 5 0 19 9 31 20 12 11 27 18 34 16 6 -3 13 -2 15 2 14 33
108 65 108 38z m-1413 -822 c-3 -3 -2 -17 3 -30 5 -13 6 -24 2 -24 -4 0 -8
-22 -7 -50 0 -27 3 -50 7 -50 4 0 3 -11 -2 -25 -6 -15 -6 -27 0 -30 5 -3 6
-15 1 -28 -5 -14 -5 -30 0 -40 6 -9 6 -17 2 -17 -5 0 -9 -22 -8 -50 0 -27 3
-50 7 -50 4 0 3 -11 -2 -25 -6 -15 -6 -27 0 -30 5 -3 6 -15 1 -28 -5 -14 -5
-30 0 -40 6 -9 6 -17 2 -17 -5 0 -9 -22 -8 -50 0 -27 3 -50 7 -50 4 0 3 -11
-2 -25 -6 -15 -6 -27 0 -30 5 -3 6 -15 1 -28 -5 -14 -5 -30 0 -40 6 -9 6 -17
2 -17 -5 0 -9 -22 -8 -50 0 -27 3 -50 7 -50 4 0 3 -11 -2 -25 -6 -15 -6 -27 0
-30 5 -3 6 -15 1 -28 -5 -14 -5 -30 0 -40 6 -9 6 -17 2 -17 -9 0 -8 -179 1
-187 3 -3 2 -11 -1 -17 -11 -16 -12 -36 -4 -36 4 0 5 -23 1 -50 -4 -28 -3 -53
2 -56 5 -3 5 -11 1 -17 -10 -17 -13 -37 -4 -37 4 0 5 -23 1 -50 -4 -28 -3 -53
2 -56 5 -3 5 -11 1 -17 -10 -17 -13 -37 -4 -37 4 0 5 -23 1 -50 -4 -28 -3 -53
0 -55 13 -8 -2 -55 -16 -55 -8 0 -14 -4 -14 -10 0 -5 -11 -10 -25 -10 -14 0
-25 -4 -25 -8 0 -4 -10 -9 -22 -9 -30 -2 -50 -7 -65 -16 -7 -5 -17 -6 -22 -2
-5 3 -12 1 -16 -5 -4 -6 -10 -8 -15 -5 -5 3 -11 1 -15 -5 -4 -6 -11 -8 -16 -5
-5 4 -9 2 -9 -4 0 -6 -7 -8 -15 -5 -8 4 -22 1 -30 -6 -8 -6 -19 -9 -25 -5 -5
3 -10 1 -10 -5 0 -6 -8 -10 -17 -9 -10 1 -26 -1 -35 -4 -10 -4 -26 -10 -35
-14 -10 -3 -21 -5 -26 -5 -4 1 -23 -4 -41 -12 -19 -8 -37 -12 -40 -8 -3 3 -6
1 -6 -4 0 -5 -10 -10 -23 -11 -30 -3 -50 -7 -62 -14 -34 -18 -39 -5 -40 114 0
73 4 117 10 117 6 0 6 3 -1 8 -9 6 -12 69 -4 97 1 6 1 15 0 20 -7 29 -4 111 5
117 7 5 6 8 -1 8 -9 0 -12 64 -4 95 1 6 1 12 0 15 -8 16 -4 120 5 120 7 0 7 3
0 8 -14 9 -14 225 0 234 7 5 6 8 -1 8 -9 0 -12 64 -4 95 1 6 1 15 0 20 -7 29
-4 111 5 117 7 5 6 8 -1 8 -9 0 -12 64 -4 95 1 6 1 12 0 15 -7 14 -6 87 1 101
5 9 5 19 2 23 -4 4 -7 23 -8 43 -1 32 5 40 44 69 25 18 49 30 53 28 5 -3 8 -1
8 5 0 5 20 20 45 32 25 12 45 26 45 29 0 4 20 15 45 26 25 10 45 22 45 27 0 4
5 5 10 2 6 -3 10 -1 10 5 0 6 8 13 18 17 9 4 36 19 59 35 23 15 44 28 48 28 8
0 89 53 97 65 4 5 8 6 8 2 0 -4 19 5 43 20 71 46 100 63 84 47z"/>
</g>
</svg>
