<svg width="14" height="14" viewBox="0 0 14 14" fill="none" xmlns="http://www.w3.org/2000/svg">
<path d="M0 12.4444C0 12.857 0.163888 13.2527 0.455612 13.5444C0.747335 13.8361 1.143 14 1.55556 14H12.4444C12.857 14 13.2527 13.8361 13.5444 13.5444C13.8361 13.2527 14 12.857 14 12.4444V1.55556C14 1.143 13.8361 0.747335 13.5444 0.455612C13.2527 0.163888 12.857 0 12.4444 0H1.55556C1.143 0 0.747335 0.163888 0.455612 0.455612C0.163888 0.747335 0 1.143 0 1.55556V12.4444ZM7 2.33333H11.6667V7H10.1111V3.88889H7V2.33333ZM2.33333 7H3.88889V10.1111H7V11.6667H2.33333V7Z" fill="#0D2668"/>
</svg>
