<svg width="18" height="16" viewBox="0 0 18 16" fill="none" xmlns="http://www.w3.org/2000/svg">
<path d="M18 0.956224C17.9512 1.39551 17.8536 1.88362 17.756 2.32291C16.9262 6.22771 16.0964 10.1325 15.2666 14.0373C15.2178 14.2814 15.169 14.4766 15.0714 14.6718C14.8762 15.0135 14.5833 15.1111 14.1928 15.0135C13.9488 14.9647 13.7535 14.8671 13.5583 14.7206C12.2892 13.7933 11.069 12.8659 9.79992 11.9385C9.65349 11.8409 9.55587 11.8409 9.40943 11.9873C8.7749 12.573 8.18919 13.2075 7.55465 13.7933C7.3106 14.0373 7.06655 14.1837 6.72488 14.1349C6.48083 14.1349 6.3344 14.0373 6.28559 13.7933C5.89511 12.573 5.50463 11.4016 5.11415 10.1813C4.96772 9.79084 4.82129 9.35155 4.72367 8.96107C4.67486 8.81464 4.62605 8.71702 4.43081 8.66821C3.21056 8.27773 1.99031 7.88725 0.770061 7.54558C0.623631 7.49677 0.428391 7.44796 0.281961 7.35034C-0.0597094 7.1551 -0.10852 6.86224 0.233151 6.56938C0.428391 6.37414 0.672441 6.27652 0.965301 6.1789C2.62484 5.54437 4.28438 4.90984 5.94392 4.27531C9.55587 2.90863 13.119 1.49313 16.7309 0.126455C16.7797 0.126455 16.7797 0.126454 16.8286 0.0776443C17.5119 -0.166406 18 0.175264 18 0.956224ZM6.77369 13.0123C6.8225 12.9635 6.8225 12.9147 6.8225 12.9147C6.92012 12.0361 6.96893 11.1575 7.06655 10.2789C7.06655 10.0837 7.16417 9.88846 7.3106 9.74203C9.65349 7.6432 11.9964 5.54437 14.3392 3.44554C14.4857 3.29911 14.6321 3.20149 14.7785 3.05506C14.8273 3.00625 14.925 2.95743 14.8762 2.85981C14.8273 2.76219 14.7297 2.76219 14.6321 2.76219C14.4369 2.76219 14.2904 2.85982 14.144 2.95744C11.2642 4.76341 8.38443 6.56938 5.50463 8.42416C5.3582 8.52178 5.30939 8.6194 5.3582 8.81464C5.69987 9.88846 6.04154 10.9623 6.43202 12.0361C6.52964 12.2801 6.62726 12.6218 6.77369 13.0123Z" fill="white"/>
</svg>
